     <svg
        width="1353"
        height="1117"
        viewBox="0 0 1353 1117"
        fill="none"
        xmlns="http://www.w3.org/2000/svg"
      >
        <g opacity="0.1" clipPath="url(#clip0_4_6)">
          <path
            fillRule="evenodd"
            clipRule="evenodd"
            d="M222.977 254.307C183.781 163.007 226.074 57.2364 317.421 18.0613C354.39 2.2066 393.694 -0.318199 430.038 8.36929L472.656 -103.048C408.253 -121.997 337.114 -119.5 270.62 -90.9667C118.998 -25.9463 48.8373 149.595 113.865 301.11C178.919 452.653 354.553 522.777 506.175 457.784C537.846 444.21 565.96 425.803 590.026 403.813L508.701 317.291C494.468 330.078 477.925 340.774 459.373 348.729C368.025 387.904 262.2 345.634 223.004 254.334L222.977 254.307Z"
            fill="#9900CC"
          />
        </g>
        <g opacity="0.1" clipPath="url(#clip1_4_6)">
          <path
            fillRule="evenodd"
            clipRule="evenodd"
            d="M921.686 911.066C1006.35 859.17 1033.13 748.505 981.514 663.898C960.625 629.658 930.128 604.946 895.554 591.087L925.334 475.628C988.656 497.285 1045.05 540.322 1082.62 601.923C1168.29 742.352 1123.83 926.001 983.335 1012.13C842.806 1098.27 659.452 1054.26 573.759 913.854C555.857 884.527 543.644 853.307 536.793 821.497L652.95 797.78C657.128 816.415 664.392 834.675 674.877 851.856C726.494 936.463 836.982 962.968 921.648 911.072L921.686 911.066Z"
            fill="#9900CC"
          />
          <path
            fillRule="evenodd"
            clipRule="evenodd"
            d="M1286.75 769.783C1251.32 791.491 1205.12 780.408 1183.53 745.004C1161.94 709.601 1173.14 663.329 1208.57 641.622C1243.97 619.899 1290.19 630.997 1311.78 666.401C1333.39 701.782 1322.18 748.076 1286.75 769.783Z"
            fill="#9900CC"
          />
        </g>
        <ellipse
          cx="227.754"
          cy="424.245"
          rx="2.78719"
          ry="2.78719"
          stroke="#9900CC"
          strokeWidth="1.5"
          strokeLinecap="round"
          strokeLinejoin="round"
        />
        <path
          fillRule="evenodd"
          clipRule="evenodd"
          d="M223.334 430.909C223.333 430.713 223.377 430.52 223.462 430.343C223.729 429.809 224.481 429.526 225.106 429.398C225.557 429.302 226.014 429.238 226.473 429.206C227.324 429.131 228.18 429.131 229.031 429.206C229.49 429.238 229.947 429.302 230.398 429.398C231.022 429.526 231.775 429.782 232.042 430.343C232.213 430.703 232.213 431.121 232.042 431.48C231.775 432.041 231.022 432.297 230.398 432.42C229.948 432.52 229.491 432.586 229.031 432.618C228.338 432.676 227.642 432.687 226.948 432.65C226.788 432.65 226.633 432.65 226.473 432.618C226.015 432.587 225.56 432.521 225.112 432.42C224.481 432.297 223.734 432.041 223.462 431.48C223.377 431.302 223.333 431.107 223.334 430.909Z"
          stroke="#9900CC"
          strokeWidth="1.5"
          strokeLinecap="round"
          strokeLinejoin="round"
        />
        <defs>
          <clipPath id="clip0_4_6">
            <rect
              width="590"
              height="659"
              fill="white"
              transform="translate(0 -177)"
            />
          </clipPath>
          <clipPath id="clip1_4_6">
            <rect
              width="588"
              height="659"
              fill="white"
              transform="matrix(-0.815832 -0.578289 -0.578289 0.815832 1352.4 687.7)"
            />
          </clipPath>
        </defs>
      </svg>
