<svg width="256" height="62" viewBox="0 0 256 62" fill="none" xmlns="http://www.w3.org/2000/svg">
<path fill-rule="evenodd" clip-rule="evenodd" d="M2.30968 25.4L25.4003 2.30992C28.4799 -0.769666 33.5196 -0.770279 36.5998 2.30992L59.6899 25.4C62.77 28.4802 62.77 33.5194 59.6899 36.5996L36.5998 59.6903C33.5196 62.7699 28.4805 62.7699 25.4003 59.6903L2.30968 36.5996C-0.769893 33.52 -0.769893 28.4802 2.30968 25.4ZM27.8054 35.517C26.0674 31.4653 27.9423 26.7717 31.994 25.0337C33.6332 24.3303 35.3773 24.2187 36.9883 24.6034L38.8785 19.6588C36.0223 18.8174 32.8673 18.9285 29.9172 20.1946C23.1928 23.0796 20.0801 30.8694 22.9651 37.5938C25.8502 44.3182 33.6399 47.4309 40.3649 44.5459C41.7691 43.9432 43.0161 43.127 44.084 42.1512L40.4772 38.3112C39.8457 38.8783 39.1123 39.3533 38.2894 39.7062C34.2377 41.4448 29.5441 39.5693 27.806 35.5176L27.8054 35.517ZM18.1868 21.0341C18.9141 22.7286 20.8767 23.5135 22.5718 22.7863C24.2662 22.059 25.0511 20.0958 24.3239 18.4013C23.5973 16.7069 21.634 15.9226 19.939 16.6492C18.2445 17.3758 17.4596 19.3391 18.1868 21.0341Z" fill="#9900CC"/>
<path d="M82.9657 44.432C80.4697 44.432 78.3097 43.892 76.4857 42.812C74.6857 41.708 73.2937 40.184 72.3097 38.24C71.3257 36.272 70.8337 34.004 70.8337 31.436C70.8337 28.844 71.3257 26.576 72.3097 24.632C73.2937 22.664 74.6857 21.128 76.4857 20.024C78.3097 18.92 80.4697 18.368 82.9657 18.368C85.9177 18.368 88.3297 19.088 90.2017 20.528C92.0737 21.968 93.2617 23.984 93.7657 26.576H89.5177C89.1817 25.112 88.4617 23.948 87.3577 23.084C86.2537 22.22 84.7777 21.788 82.9297 21.788C80.4097 21.788 78.4177 22.652 76.9537 24.38C75.4897 26.084 74.7577 28.436 74.7577 31.436C74.7577 34.412 75.4897 36.752 76.9537 38.456C78.4177 40.16 80.4097 41.012 82.9297 41.012C84.7777 41.012 86.2537 40.604 87.3577 39.788C88.4617 38.972 89.1817 37.856 89.5177 36.44H93.7657C93.2617 38.936 92.0737 40.892 90.2017 42.308C88.3297 43.724 85.9177 44.432 82.9657 44.432ZM103.864 44.432C102.352 44.432 101.104 44.18 100.12 43.676C99.1363 43.172 98.4043 42.512 97.9243 41.696C97.4443 40.856 97.2043 39.944 97.2043 38.96C97.2043 37.232 97.8763 35.864 99.2203 34.856C100.564 33.848 102.484 33.344 104.98 33.344H109.66V33.02C109.66 31.628 109.276 30.584 108.508 29.888C107.764 29.192 106.792 28.844 105.592 28.844C104.536 28.844 103.612 29.108 102.82 29.636C102.052 30.14 101.584 30.896 101.416 31.904H97.6003C97.7203 30.608 98.1523 29.504 98.8963 28.592C99.6643 27.656 100.624 26.948 101.776 26.468C102.952 25.964 104.236 25.712 105.628 25.712C108.124 25.712 110.056 26.372 111.424 27.692C112.792 28.988 113.476 30.764 113.476 33.02V44H110.164L109.84 40.94C109.336 41.924 108.604 42.752 107.644 43.424C106.684 44.096 105.424 44.432 103.864 44.432ZM104.62 41.336C105.652 41.336 106.516 41.096 107.212 40.616C107.932 40.112 108.484 39.452 108.868 38.636C109.276 37.82 109.528 36.92 109.624 35.936H105.376C103.864 35.936 102.784 36.2 102.136 36.728C101.512 37.256 101.2 37.916 101.2 38.708C101.2 39.524 101.5 40.172 102.1 40.652C102.724 41.108 103.564 41.336 104.62 41.336ZM117.926 44V26.144H121.31L121.634 28.664C122.21 27.752 122.966 27.032 123.902 26.504C124.862 25.976 125.966 25.712 127.214 25.712C130.046 25.712 132.014 26.828 133.118 29.06C133.766 28.028 134.63 27.212 135.71 26.612C136.814 26.012 138.002 25.712 139.274 25.712C141.506 25.712 143.258 26.384 144.53 27.728C145.802 29.072 146.438 31.076 146.438 33.74V44H142.622V34.136C142.622 30.68 141.302 28.952 138.662 28.952C137.318 28.952 136.214 29.456 135.35 30.464C134.51 31.472 134.09 32.912 134.09 34.784V44H130.274V34.136C130.274 30.68 128.942 28.952 126.278 28.952C124.958 28.952 123.866 29.456 123.002 30.464C122.162 31.472 121.742 32.912 121.742 34.784V44H117.926ZM150.902 51.92V26.144H154.322L154.718 28.916C155.294 28.076 156.086 27.332 157.094 26.684C158.102 26.036 159.398 25.712 160.982 25.712C162.71 25.712 164.234 26.12 165.554 26.936C166.874 27.752 167.906 28.868 168.65 30.284C169.418 31.7 169.802 33.308 169.802 35.108C169.802 36.908 169.418 38.516 168.65 39.932C167.906 41.324 166.874 42.428 165.554 43.244C164.234 44.036 162.698 44.432 160.946 44.432C159.554 44.432 158.318 44.156 157.238 43.604C156.182 43.052 155.342 42.272 154.718 41.264V51.92H150.902ZM160.298 41.12C161.93 41.12 163.274 40.568 164.33 39.464C165.386 38.336 165.914 36.872 165.914 35.072C165.914 33.896 165.674 32.852 165.194 31.94C164.714 31.028 164.054 30.32 163.214 29.816C162.374 29.288 161.402 29.024 160.298 29.024C158.666 29.024 157.322 29.588 156.266 30.716C155.234 31.844 154.718 33.296 154.718 35.072C154.718 36.872 155.234 38.336 156.266 39.464C157.322 40.568 158.666 41.12 160.298 41.12ZM180.518 44.432C178.358 44.432 176.654 43.76 175.406 42.416C174.182 41.072 173.57 39.068 173.57 36.404V26.144H177.386V36.008C177.386 39.464 178.802 41.192 181.634 41.192C183.05 41.192 184.214 40.688 185.126 39.68C186.038 38.672 186.494 37.232 186.494 35.36V26.144H190.31V44H186.926L186.638 40.868C186.086 41.972 185.27 42.848 184.19 43.496C183.134 44.12 181.91 44.432 180.518 44.432ZM202.292 44.432C200.036 44.432 198.176 43.88 196.712 42.776C195.248 41.672 194.408 40.208 194.192 38.384H198.044C198.236 39.2 198.692 39.908 199.412 40.508C200.132 41.084 201.08 41.372 202.256 41.372C203.408 41.372 204.248 41.132 204.776 40.652C205.304 40.172 205.568 39.62 205.568 38.996C205.568 38.084 205.196 37.472 204.452 37.16C203.732 36.824 202.724 36.524 201.428 36.26C200.42 36.044 199.412 35.756 198.404 35.396C197.42 35.036 196.592 34.532 195.92 33.884C195.272 33.212 194.948 32.312 194.948 31.184C194.948 29.624 195.548 28.328 196.748 27.296C197.948 26.24 199.628 25.712 201.788 25.712C203.78 25.712 205.388 26.192 206.612 27.152C207.86 28.112 208.592 29.468 208.808 31.22H205.136C205.016 30.452 204.656 29.852 204.056 29.42C203.48 28.988 202.7 28.772 201.716 28.772C200.756 28.772 200.012 28.976 199.484 29.384C198.956 29.768 198.692 30.272 198.692 30.896C198.692 31.52 199.052 32.012 199.772 32.372C200.516 32.732 201.488 33.056 202.688 33.344C203.888 33.608 204.992 33.92 206 34.28C207.032 34.616 207.86 35.12 208.484 35.792C209.108 36.464 209.42 37.448 209.42 38.744C209.444 40.376 208.808 41.732 207.512 42.812C206.24 43.892 204.5 44.432 202.292 44.432ZM220.714 44.432C218.458 44.432 216.598 43.88 215.134 42.776C213.67 41.672 212.83 40.208 212.614 38.384H216.466C216.658 39.2 217.114 39.908 217.834 40.508C218.554 41.084 219.502 41.372 220.678 41.372C221.83 41.372 222.67 41.132 223.198 40.652C223.726 40.172 223.99 39.62 223.99 38.996C223.99 38.084 223.618 37.472 222.874 37.16C222.154 36.824 221.146 36.524 219.85 36.26C218.842 36.044 217.834 35.756 216.826 35.396C215.842 35.036 215.014 34.532 214.342 33.884C213.694 33.212 213.37 32.312 213.37 31.184C213.37 29.624 213.97 28.328 215.17 27.296C216.37 26.24 218.05 25.712 220.21 25.712C222.202 25.712 223.81 26.192 225.034 27.152C226.282 28.112 227.014 29.468 227.23 31.22H223.558C223.438 30.452 223.078 29.852 222.478 29.42C221.902 28.988 221.122 28.772 220.138 28.772C219.178 28.772 218.434 28.976 217.906 29.384C217.378 29.768 217.114 30.272 217.114 30.896C217.114 31.52 217.474 32.012 218.194 32.372C218.938 32.732 219.91 33.056 221.11 33.344C222.31 33.608 223.414 33.92 224.422 34.28C225.454 34.616 226.282 35.12 226.906 35.792C227.53 36.464 227.842 37.448 227.842 38.744C227.866 40.376 227.23 41.732 225.934 42.812C224.662 43.892 222.922 44.432 220.714 44.432ZM239.136 44.432C236.88 44.432 235.02 43.88 233.556 42.776C232.092 41.672 231.252 40.208 231.036 38.384H234.888C235.08 39.2 235.536 39.908 236.256 40.508C236.976 41.084 237.924 41.372 239.1 41.372C240.252 41.372 241.092 41.132 241.62 40.652C242.148 40.172 242.412 39.62 242.412 38.996C242.412 38.084 242.04 37.472 241.296 37.16C240.576 36.824 239.568 36.524 238.272 36.26C237.264 36.044 236.256 35.756 235.248 35.396C234.264 35.036 233.436 34.532 232.764 33.884C232.116 33.212 231.792 32.312 231.792 31.184C231.792 29.624 232.392 28.328 233.592 27.296C234.792 26.24 236.472 25.712 238.632 25.712C240.624 25.712 242.232 26.192 243.456 27.152C244.704 28.112 245.436 29.468 245.652 31.22H241.98C241.86 30.452 241.5 29.852 240.9 29.42C240.324 28.988 239.544 28.772 238.56 28.772C237.6 28.772 236.856 28.976 236.328 29.384C235.8 29.768 235.536 30.272 235.536 30.896C235.536 31.52 235.896 32.012 236.616 32.372C237.36 32.732 238.332 33.056 239.532 33.344C240.732 33.608 241.836 33.92 242.844 34.28C243.876 34.616 244.704 35.12 245.328 35.792C245.952 36.464 246.264 37.448 246.264 38.744C246.288 40.376 245.652 41.732 244.356 42.812C243.084 43.892 241.344 44.432 239.136 44.432ZM251.942 44.216C251.222 44.216 250.622 43.988 250.142 43.532C249.686 43.052 249.458 42.488 249.458 41.84C249.458 41.168 249.686 40.604 250.142 40.148C250.622 39.668 251.222 39.428 251.942 39.428C252.662 39.428 253.25 39.668 253.706 40.148C254.162 40.604 254.39 41.168 254.39 41.84C254.39 42.488 254.162 43.052 253.706 43.532C253.25 43.988 252.662 44.216 251.942 44.216Z" fill="black"/>
</svg>
