<svg width="14" height="14" viewBox="0 0 14 14" fill="none" xmlns="http://www.w3.org/2000/svg">
<ellipse cx="6.75447" cy="4.24544" rx="2.78719" ry="2.78719" stroke="#9900CC" stroke-width="1.5" stroke-linecap="round" stroke-linejoin="round"/>
<path fill-rule="evenodd" clip-rule="evenodd" d="M2.33351 10.909C2.33276 10.7131 2.37658 10.5195 2.46165 10.343C2.72862 9.80907 3.48148 9.52608 4.1062 9.39794C4.55674 9.30179 5.01351 9.23756 5.47309 9.20572C6.32399 9.13097 7.17979 9.13097 8.03068 9.20572C8.49023 9.23792 8.94697 9.30215 9.39758 9.39794C10.0223 9.52608 10.7752 9.78238 11.0421 10.343C11.2132 10.7028 11.2132 11.1205 11.0421 11.4803C10.7752 12.041 10.0223 12.2973 9.39758 12.4201C8.94756 12.5202 8.49063 12.5862 8.03068 12.6176C7.33813 12.6763 6.64234 12.687 5.9483 12.6497C5.78812 12.6497 5.63328 12.6497 5.47309 12.6176C5.01486 12.5866 4.55968 12.5206 4.11154 12.4201C3.48148 12.2973 2.73396 12.041 2.46165 11.4803C2.37701 11.3018 2.33323 11.1066 2.33351 10.909Z" stroke="#9900CC" stroke-width="1.5" stroke-linecap="round" stroke-linejoin="round"/>
</svg>
